<?xml version="1.0" standalone="no"?>
<!DOCTYPE svg PUBLIC "-//W3C//DTD SVG 1.1//EN" "http://www.w3.org/Graphics/SVG/1.1/DTD/svg11.dtd" >
<svg xmlns="http://www.w3.org/2000/svg" xmlns:xlink="http://www.w3.org/1999/xlink" version="1.1" viewBox="-10 0 142 1000">
   <path fill="currentColor"
d="M58 599c36 0 64 26 64 63v5c0 23 -5 51 -21 76c-13 20 -54 55 -80 55c-3 0 -5 -1 -6 -6c0 0 0 -1 -1 -2c0 -4 4 -6 7 -8c1 -1 22 -13 36 -31c7 -9 13 -20 13 -31c0 -3 -1 -6 -2 -9c0 0 -2 -17 -22 -17c-27 0 -45 -17 -45 -44c0 -28 22 -51 57 -51z" />
</svg>
