<?xml version="1.0" standalone="no"?>
<!DOCTYPE svg PUBLIC "-//W3C//DTD SVG 1.1//EN" "http://www.w3.org/Graphics/SVG/1.1/DTD/svg11.dtd" >
<svg xmlns="http://www.w3.org/2000/svg" xmlns:xlink="http://www.w3.org/1999/xlink" version="1.1" viewBox="-81 0 445 1000">
   <path fill="currentColor"
d="M219 581c45 0 74 25 74 71c0 76 -63 156 -139 156c-14 0 -24 -2 -36 -7c-12 -7 -15 -15 -19 -15s-5 6 -7 10l-36 90c-1 2 -2 4 -2 5c0 3 3 3 8 3h32c6 0 9 3 9 9c0 7 -3 11 -10 11h-155c-6 0 -9 -4 -9 -10c0 -7 3 -10 10 -10h25c8 0 10 -2 12 -8l98 -244
c3 -6 5 -14 5 -20s-2 -10 -9 -10c-14 0 -30 21 -53 61c-4 7 -7 12 -13 12c-5 0 -9 -3 -9 -9c0 -4 2 -8 6 -15c25 -46 50 -79 97 -79c21 0 33 7 39 16c7 14 5 20 9 20c3 0 5 -7 16 -16c15 -13 32 -21 57 -21zM198 610c-20 0 -40 24 -52 51l-16 39c-8 22 -15 38 -15 55
s7 26 20 26c39 0 81 -102 81 -141c0 -18 -5 -30 -18 -30z" />
</svg>
