<?xml version="1.0" standalone="no"?>
<!DOCTYPE svg PUBLIC "-//W3C//DTD SVG 1.1//EN" "http://www.w3.org/Graphics/SVG/1.1/DTD/svg11.dtd" >
<svg xmlns="http://www.w3.org/2000/svg" xmlns:xlink="http://www.w3.org/1999/xlink" version="1.1" viewBox="-10 0 504 1000">
   <path fill="currentColor"
d="M242 623c-165 0 -201 123 -211 155c-1 4 -1 7 -2 8c-5 11 -9 16 -16 16s-11 -2 -11 -10c0 -2 0 -6 1 -9c49 -245 215 -246 240 -246c23 0 191 1 240 246c1 3 1 6 1 8c0 8 -4 11 -11 11c-8 0 -11 -5 -17 -16c-1 -1 -1 -4 -2 -6c-8 -30 -42 -157 -212 -157zM286 758
c0 24 -20 44 -44 44c-23 0 -43 -20 -43 -44c0 -23 20 -43 43 -43c24 0 44 20 44 43z" />
</svg>
