<?xml version="1.0" standalone="no"?>
<!DOCTYPE svg PUBLIC "-//W3C//DTD SVG 1.1//EN" "http://www.w3.org/Graphics/SVG/1.1/DTD/svg11.dtd" >
<svg xmlns="http://www.w3.org/2000/svg" xmlns:xlink="http://www.w3.org/1999/xlink" version="1.1" viewBox="-26 0 399 1000">
   <path fill="currentColor"
d="M294 581c32 0 43 23 43 43c0 44 -47 114 -47 142c0 4 2 7 7 7c10 0 25 -19 41 -43c4 -7 6 -11 12 -11c4 0 7 3 7 7s-3 9 -7 17c-26 43 -54 65 -84 65c-24 0 -36 -11 -36 -32c0 -34 49 -116 49 -144c0 -6 -2 -11 -12 -11c-17 0 -34 17 -44 40l-52 129c-3 8 -5 10 -13 10
h-39c-6 0 -9 -2 -9 -5c0 -2 1 -5 3 -9c49 -124 50 -124 50 -124c5 -12 8 -20 8 -30c0 -6 -2 -11 -12 -11c-17 0 -34 17 -44 40l-52 129c-3 8 -5 10 -13 10h-39c-6 0 -9 -2 -9 -5c0 -2 1 -5 3 -9l58 -144c3 -6 5 -14 5 -20s-2 -10 -9 -10c-14 0 -30 22 -54 62
c-4 7 -7 11 -12 11s-9 -3 -9 -9c0 -4 2 -8 6 -15c24 -45 49 -79 92 -79c15 0 26 8 31 18c5 11 2 17 6 17c3 0 4 -3 12 -11c13 -14 31 -25 55 -25c20 0 30 9 35 19s2 17 6 17c3 0 4 -3 12 -11c13 -14 31 -25 55 -25z" />
</svg>
