<?xml version="1.0" standalone="no"?>
<!DOCTYPE svg PUBLIC "-//W3C//DTD SVG 1.1//EN" "http://www.w3.org/Graphics/SVG/1.1/DTD/svg11.dtd" >
<svg xmlns="http://www.w3.org/2000/svg" xmlns:xlink="http://www.w3.org/1999/xlink" version="1.1" viewBox="-10 0 314 1000">
   <path fill="currentColor"
d="M140 800h-29v-800h29v800zM294 0v800h-100v-800h100zM41 256c21 0 40 18 40 40s-19 40 -40 40c-23 0 -40 -18 -40 -40s17 -40 40 -40zM41 458c21 0 40 17 40 40c0 22 -19 40 -40 40c-23 0 -40 -18 -40 -40c0 -23 17 -40 40 -40z" />
</svg>
