<?xml version="1.0" standalone="no"?>
<!DOCTYPE svg PUBLIC "-//W3C//DTD SVG 1.1//EN" "http://www.w3.org/Graphics/SVG/1.1/DTD/svg11.dtd" >
<svg xmlns="http://www.w3.org/2000/svg" xmlns:xlink="http://www.w3.org/1999/xlink" version="1.1" viewBox="-10 0 886 1000">
   <path fill="currentColor"
d="M779 680c-18 86 -67 127 -152 127c-57 0 -97 -16 -130 -53c-31 -34 -46 -73 -46 -123c0 -108 76 -185 182 -185c33 0 56 7 88 26l25 -24h21l5 138l-26 2c-21 -80 -56 -117 -109 -117c-59 0 -91 52 -91 151c0 106 32 156 96 156c56 0 94 -39 108 -105zM381 623
c0 66 -24 118 -67 147c-29 21 -68 30 -128 30h-177v-26h7c26 0 35 -2 40 -7c3 -4 3 -6 3 -36v-209c0 -30 0 -32 -3 -36c-5 -4 -14 -7 -40 -7h-7v-25h171c68 0 103 6 132 25c45 30 69 79 69 144zM285 622c0 -96 -32 -143 -99 -143h-12c-23 0 -28 6 -28 29v235
c0 25 4 31 28 31h10c72 0 101 -47 101 -152zM458 762c0 25 -20 45 -46 45c-25 0 -45 -21 -45 -45c0 -25 20 -45 45 -45c26 0 46 20 46 45zM866 762c0 25 -20 45 -46 45c-25 0 -45 -21 -45 -45c0 -25 20 -45 45 -45c26 0 46 20 46 45z" />
</svg>
