<?xml version="1.0" standalone="no"?>
<!DOCTYPE svg PUBLIC "-//W3C//DTD SVG 1.1//EN" "http://www.w3.org/Graphics/SVG/1.1/DTD/svg11.dtd" >
<svg xmlns="http://www.w3.org/2000/svg" xmlns:xlink="http://www.w3.org/1999/xlink" version="1.1" viewBox="-123 0 527 1000">
   <path fill="currentColor"
d="M13 589h46c11 0 12 0 16 -12c27 -77 70 -132 147 -132c51 0 69 24 69 53c0 30 -18 44 -39 44c-20 0 -36 -12 -36 -34c0 -14 6 -26 17 -30c9 -4 13 -4 13 -8c0 -5 -7 -7 -13 -7c-40 0 -58 43 -74 112c-1 5 -1 7 -1 10c0 4 2 4 8 4h48c8 0 12 4 12 12c0 9 -4 13 -13 13h-52
c-5 0 -11 6 -11 11c-20 67 -37 117 -60 165c-44 91 -82 132 -143 132c-33 0 -60 -19 -60 -54c0 -25 18 -44 42 -44c21 0 36 12 36 33c0 13 -7 23 -16 29c-12 8 -19 4 -19 11c0 4 4 7 14 7c32 0 46 -26 69 -104l50 -175c1 -4 2 -7 2 -8c0 -3 -2 -3 -7 -3h-46
c-8 0 -12 -4 -12 -12c0 -9 4 -13 13 -13z" />
</svg>
