<?xml version="1.0" standalone="no"?>
<!DOCTYPE svg PUBLIC "-//W3C//DTD SVG 1.1//EN" "http://www.w3.org/Graphics/SVG/1.1/DTD/svg11.dtd" >
<svg xmlns="http://www.w3.org/2000/svg" xmlns:xlink="http://www.w3.org/1999/xlink" version="1.1" viewBox="-10 0 218 1000">
   <path fill="currentColor"
d="M152 826h8c14 0 28 1 32 5c3 4 6 19 6 32c0 29 -6 37 -36 37c-14 0 -27 -3 -32 -8c-4 -2 -4 -16 -4 -30c-4 -12 -17 -37 -28 -37c-10 0 -20 22 -24 33c-1 1 -2 3 -2 4c0 12 -2 26 -6 30c-5 6 -18 8 -30 8c-14 0 -26 -3 -32 -8c-2 -2 -4 -16 -4 -30c0 -15 2 -28 4 -31
c5 -4 20 -5 34 -5h8c12 -4 37 -17 37 -28c0 -5 -29 -21 -37 -26c-3 0 -5 1 -8 1c-14 0 -28 -3 -34 -8c-2 -3 -4 -17 -4 -31c0 -15 2 -28 4 -30c5 -4 19 -6 33 -6c13 0 25 2 29 6c4 3 6 18 6 31c3 11 16 38 27 38c10 0 23 -29 27 -38c0 -14 0 -29 4 -31c4 -4 18 -6 32 -6
c32 0 36 6 36 38c0 13 -2 25 -6 29c-6 5 -18 8 -30 8c-4 0 -7 -1 -10 -1c-11 4 -38 16 -38 27c0 6 29 22 38 27z" />
</svg>
