<?xml version="1.0" standalone="no"?>
<!DOCTYPE svg PUBLIC "-//W3C//DTD SVG 1.1//EN" "http://www.w3.org/Graphics/SVG/1.1/DTD/svg11.dtd" >
<svg xmlns="http://www.w3.org/2000/svg" xmlns:xlink="http://www.w3.org/1999/xlink" version="1.1" viewBox="-10 0 446 1000">
   <path fill="currentColor"
d="M422 589l-320 400c-4 5 -9 11 -16 11h-80c-4 0 -6 -2 -6 -6c0 -1 1 -4 2 -5l320 -400c5 -7 9 -12 14 -12h85c3 0 5 1 5 4c0 2 -2 5 -4 8zM50 640c28 0 50 22 50 50s-22 50 -50 50s-50 -22 -50 -50s22 -50 50 -50zM375 839c28 0 51 23 51 51c0 27 -23 49 -51 49
c-27 0 -49 -22 -49 -49c0 -28 22 -51 49 -51z" />
</svg>
