<?xml version="1.0" standalone="no"?>
<!DOCTYPE svg PUBLIC "-//W3C//DTD SVG 1.1//EN" "http://www.w3.org/Graphics/SVG/1.1/DTD/svg11.dtd" >
<svg xmlns="http://www.w3.org/2000/svg" xmlns:xlink="http://www.w3.org/1999/xlink" version="1.1" viewBox="-10 0 344 1000">
   <path fill="currentColor"
d="M308 297l-34 13c-10 3 -17 28 -17 37v121c0 16 10 24 17 24l34 -13c3 -2 4 -2 7 -2c5 0 9 4 9 11v92c0 8 -7 18 -16 22c0 0 -27 10 -36 14s-15 20 -15 30v185c0 8 -7 14 -22 14c-9 0 -17 -6 -17 -14v-163c0 -7 -6 -23 -16 -23c-2 0 -4 1 -6 1l-79 33c-6 2 -13 11 -13 28
v181c0 8 -9 14 -22 14c-9 0 -17 -6 -17 -14v-160c0 -6 -6 -21 -16 -21c-1 0 -2 0 -3 2c-12 4 -30 11 -30 11c-2 0 -4 2 -6 2c-6 0 -10 -4 -10 -12v-92c0 -8 7 -19 16 -21c0 0 27 -12 35 -14c8 -4 14 -16 14 -30v-129c0 -10 -8 -23 -18 -23l-2 1c-5 3 -26 13 -31 13l-2 1
c-8 0 -12 -3 -12 -12v-92c0 -8 7 -18 16 -21c0 0 26 -10 33 -14c8 -4 16 -17 16 -35v-176c0 -7 8 -14 21 -14c9 0 18 7 18 14v156c0 11 4 26 16 26c22 -5 66 -23 82 -32c11 -8 15 -25 16 -38v-169c0 -8 8 -14 21 -14c11 0 18 6 18 14v159c0 10 10 17 19 17
c6 -2 32 -12 32 -12c3 -1 4 -1 7 -1c5 0 9 4 9 10v92c0 8 -7 19 -16 23zM218 508c3 -11 6 -48 6 -83s-3 -67 -6 -74c-2 -5 -10 -8 -19 -8c-33 0 -92 28 -95 50c-3 10 -4 56 -4 96c0 31 1 60 4 65c1 4 8 6 16 6c30 0 91 -26 98 -52z" />
</svg>
