<?xml version="1.0" standalone="no"?>
<!DOCTYPE svg PUBLIC "-//W3C//DTD SVG 1.1//EN" "http://www.w3.org/Graphics/SVG/1.1/DTD/svg11.dtd" >
<svg xmlns="http://www.w3.org/2000/svg" xmlns:xlink="http://www.w3.org/1999/xlink" version="1.1" viewBox="-10 0 359 1000">
   <path fill="currentColor"
d="M18 805c-12 -15 -18 -872 -18 -872c2 -27 26 -42 47 -42c15 0 28 9 28 26c0 30 -9 390 -10 423c0 10 6 21 16 25c3 2 5 2 8 2c7 0 24 -14 33 -21c16 -11 34 -17 51 -21c10 -3 21 -5 31 -5c69 5 135 59 135 144c0 69 -46 161 -180 254c-37 25 -73 66 -118 92
c0 0 -5 3 -9 3c-5 0 -9 -2 -14 -8zM71 671c0 8 3 23 16 23c5 0 9 -2 15 -5c65 -40 134 -121 134 -202c0 -38 -17 -87 -62 -87c-12 0 -25 3 -39 10c-21 12 -60 45 -66 63c-1 6 -3 24 -3 48c0 60 5 150 5 150z" />
</svg>
