<?xml version="1.0" standalone="no"?>
<!DOCTYPE svg PUBLIC "-//W3C//DTD SVG 1.1//EN" "http://www.w3.org/Graphics/SVG/1.1/DTD/svg11.dtd" >
<svg xmlns="http://www.w3.org/2000/svg" xmlns:xlink="http://www.w3.org/1999/xlink" version="1.1" viewBox="-10 0 238 1000">
   <path fill="currentColor"
d="M183 215l20 -7c1 -1 4 -1 5 -1c5 0 10 4 10 10v653c0 9 -7 16 -15 16h-17c-9 0 -16 -7 -16 -16v-194c0 -10 -9 -14 -22 -14c-37 0 -110 31 -128 39c-2 1 -4 1 -6 1l-2 1c-8 0 -12 -2 -12 -11v-670c0 -9 7 -15 16 -15h17c7 0 15 6 15 15v217c0 6 5 7 13 7
c34 0 117 -30 117 -30c1 0 3 -1 5 -1zM48 399v134c0 5 7 8 16 8c32 0 106 -30 106 -53v-134c0 -5 -4 -7 -11 -7c-32 0 -111 34 -111 52z" />
</svg>
